#define iconify_width 8
#define iconify_height 8
static unsigned char iconify_bits[] = {
   0x00, 0x00, 0x08, 0x08, 0x3a, 0x02, 0x0e, 0x00 };
