#define max_width 8
#define max_height 8
static unsigned char max_bits[] = {
   0x00, 0x00, 0x00, 0x38, 0x22, 0x22, 0x0e, 0x00 };
