#define iconify_width 8
#define iconify_height 8
static unsigned char iconify_bits[] = {
   0x00, 0x00, 0x22, 0x14, 0x2a, 0x14, 0x08, 0x00 };
